<svg width="1121" height="434" xmlns="http://www.w3.org/2000/svg" xmlns:xlink="http://www.w3.org/1999/xlink" xml:space="preserve" overflow="hidden"><g transform="translate(-125 -456)"><rect x="996" y="578" width="57" height="262" fill="#4472C4"/><text fill="#FFFFFF" font-family="Calibri,Calibri_MSFontService,Arial" font-weight="400" font-size="30" transform="matrix(6.12323e-17 1 -1 6.12323e-17 1014.32 640)">Leaky ReLU</text><rect x="1093" y="596" width="56" height="226" fill="#4472C4"/><text fill="#FFFFFF" font-family="Calibri,Calibri_MSFontService,Arial" font-weight="400" font-size="30" transform="matrix(6.12323e-17 1 -1 6.12323e-17 1110.95 614)">Conv2D </text><text fill="#FFFFFF" font-family="Calibri,Calibri_MSFontService,Arial" font-weight="400" font-size="18" transform="matrix(6.12323e-17 1 -1 6.12323e-17 1110.95 716)">64/128</text><text fill="#FFFFFF" font-family="Calibri,Calibri_MSFontService,Arial" font-weight="400" font-size="18" transform="matrix(6.12323e-17 1 -1 6.12323e-17 1110.95 774)">→ </text><text fill="#FFFFFF" font-family="Calibri,Calibri_MSFontService,Arial" font-weight="400" font-size="18" transform="matrix(6.12323e-17 1 -1 6.12323e-17 1110.95 795)">3</text><rect x="1189" y="596" width="57" height="226" fill="#4472C4"/><text fill="#FFFFFF" font-family="Calibri,Calibri_MSFontService,Arial" font-weight="400" font-size="30" transform="matrix(6.12323e-17 1 -1 6.12323e-17 1207.22 680)">Tanh</text><path d="M1149.5 709.083 1180.85 709.083 1180.85 709.917 1149.5 709.917ZM1179.19 704.5 1189.19 709.5 1179.19 714.5Z"/><text font-family="Calibri,Calibri_MSFontService,Arial" font-weight="400" font-size="15" transform="translate(538.368 859)">With options “more”</text><text font-family="Calibri,Calibri_MSFontService,Arial" font-weight="400" font-size="15" transform="translate(538.368 877)">and “most”</text><text font-family="Calibri,Calibri_MSFontService,Arial" font-weight="400" font-size="15" transform="translate(930.637 859)">With option “most”</text><rect x="314" y="596" width="57" height="226" fill="#4472C4"/><text fill="#FFFFFF" font-family="Calibri,Calibri_MSFontService,Arial" font-weight="400" font-size="30" transform="matrix(6.12323e-17 1 -1 6.12323e-17 332.597 618)">Conv2D </text><text fill="#FFFFFF" font-family="Calibri,Calibri_MSFontService,Arial" font-weight="400" font-size="23" transform="matrix(6.12323e-17 1 -1 6.12323e-17 332.597 720)">7</text><text fill="#FFFFFF" font-family="Calibri,Calibri_MSFontService,Arial" font-weight="400" font-size="23" transform="matrix(6.12323e-17 1 -1 6.12323e-17 332.597 732)">→</text><text fill="#FFFFFF" font-family="Calibri,Calibri_MSFontService,Arial" font-weight="400" font-size="23" transform="matrix(6.12323e-17 1 -1 6.12323e-17 332.597 753)">1024</text><rect x="408" y="578" width="57" height="262" fill="#4472C4"/><text fill="#FFFFFF" font-family="Calibri,Calibri_MSFontService,Arial" font-weight="400" font-size="30" transform="matrix(6.12323e-17 1 -1 6.12323e-17 426.54 592)">SRB + up </text><text fill="#FFFFFF" font-family="Calibri,Calibri_MSFontService,Arial" font-weight="400" font-size="23" transform="matrix(6.12323e-17 1 -1 6.12323e-17 426.54 705)">2048</text><text fill="#FFFFFF" font-family="Calibri,Calibri_MSFontService,Arial" font-weight="400" font-size="23" transform="matrix(6.12323e-17 1 -1 6.12323e-17 426.54 753)">→</text><text fill="#FFFFFF" font-family="Calibri,Calibri_MSFontService,Arial" font-weight="400" font-size="23" transform="matrix(6.12323e-17 1 -1 6.12323e-17 426.54 779)">2048</text><rect x="473" y="578" width="57" height="262" fill="#4472C4"/><text fill="#FFFFFF" font-family="Calibri,Calibri_MSFontService,Arial" font-weight="400" font-size="30" transform="matrix(6.12323e-17 1 -1 6.12323e-17 491.877 592)">SRB + up </text><text fill="#FFFFFF" font-family="Calibri,Calibri_MSFontService,Arial" font-weight="400" font-size="23" transform="matrix(6.12323e-17 1 -1 6.12323e-17 491.877 705)">2048</text><text fill="#FFFFFF" font-family="Calibri,Calibri_MSFontService,Arial" font-weight="400" font-size="23" transform="matrix(6.12323e-17 1 -1 6.12323e-17 491.877 753)">→</text><text fill="#FFFFFF" font-family="Calibri,Calibri_MSFontService,Arial" font-weight="400" font-size="23" transform="matrix(6.12323e-17 1 -1 6.12323e-17 491.877 779)">2048</text><rect x="539" y="578" width="57" height="262" stroke="#2F5597" stroke-width="1.66667" stroke-miterlimit="8" stroke-dasharray="13.3333 5" fill="#8FAADC"/><text fill="#FFFFFF" font-family="Calibri,Calibri_MSFontService,Arial" font-weight="400" font-size="30" transform="matrix(6.12323e-17 1 -1 6.12323e-17 557.215 633)">Up sampling</text><rect x="604" y="578" width="57" height="262" fill="#4472C4"/><text fill="#FFFFFF" font-family="Calibri,Calibri_MSFontService,Arial" font-weight="400" font-size="30" transform="matrix(6.12323e-17 1 -1 6.12323e-17 622.553 592)">SRB + up </text><text fill="#FFFFFF" font-family="Calibri,Calibri_MSFontService,Arial" font-weight="400" font-size="23" transform="matrix(6.12323e-17 1 -1 6.12323e-17 622.553 705)">2048</text><text fill="#FFFFFF" font-family="Calibri,Calibri_MSFontService,Arial" font-weight="400" font-size="23" transform="matrix(6.12323e-17 1 -1 6.12323e-17 622.553 753)">→</text><text fill="#FFFFFF" font-family="Calibri,Calibri_MSFontService,Arial" font-weight="400" font-size="23" transform="matrix(6.12323e-17 1 -1 6.12323e-17 622.553 779)">2048</text><rect x="669" y="578" width="57" height="262" fill="#4472C4"/><text fill="#FFFFFF" font-family="Calibri,Calibri_MSFontService,Arial" font-weight="400" font-size="30" transform="matrix(6.12323e-17 1 -1 6.12323e-17 687.891 594)">SRB + up </text><text fill="#FFFFFF" font-family="Calibri,Calibri_MSFontService,Arial" font-weight="400" font-size="23" transform="matrix(6.12323e-17 1 -1 6.12323e-17 687.891 708)">2048</text><text fill="#FFFFFF" font-family="Calibri,Calibri_MSFontService,Arial" font-weight="400" font-size="23" transform="matrix(6.12323e-17 1 -1 6.12323e-17 687.891 755)">→</text><text fill="#FFFFFF" font-family="Calibri,Calibri_MSFontService,Arial" font-weight="400" font-size="23" transform="matrix(6.12323e-17 1 -1 6.12323e-17 687.891 776)">1024</text><rect x="735" y="578" width="57" height="262" fill="#4472C4"/><text fill="#FFFFFF" font-family="Calibri,Calibri_MSFontService,Arial" font-weight="400" font-size="30" transform="matrix(6.12323e-17 1 -1 6.12323e-17 753.228 600)">SRB + up </text><text fill="#FFFFFF" font-family="Calibri,Calibri_MSFontService,Arial" font-weight="400" font-size="23" transform="matrix(6.12323e-17 1 -1 6.12323e-17 753.228 714)">1024</text><text fill="#FFFFFF" font-family="Calibri,Calibri_MSFontService,Arial" font-weight="400" font-size="23" transform="matrix(6.12323e-17 1 -1 6.12323e-17 753.228 761)">→</text><text fill="#FFFFFF" font-family="Calibri,Calibri_MSFontService,Arial" font-weight="400" font-size="23" transform="matrix(6.12323e-17 1 -1 6.12323e-17 753.228 782)">512</text><rect x="800" y="578" width="57" height="262" fill="#4472C4"/><text fill="#FFFFFF" font-family="Calibri,Calibri_MSFontService,Arial" font-weight="400" font-size="30" transform="matrix(6.12323e-17 1 -1 6.12323e-17 818.566 606)">SRB + up </text><text fill="#FFFFFF" font-family="Calibri,Calibri_MSFontService,Arial" font-weight="400" font-size="23" transform="matrix(6.12323e-17 1 -1 6.12323e-17 818.566 720)">512</text><text fill="#FFFFFF" font-family="Calibri,Calibri_MSFontService,Arial" font-weight="400" font-size="23" transform="matrix(6.12323e-17 1 -1 6.12323e-17 818.566 755)">→</text><text fill="#FFFFFF" font-family="Calibri,Calibri_MSFontService,Arial" font-weight="400" font-size="23" transform="matrix(6.12323e-17 1 -1 6.12323e-17 818.566 776)">256</text><rect x="865" y="578" width="58" height="262" fill="#4472C4"/><text fill="#FFFFFF" font-family="Calibri,Calibri_MSFontService,Arial" font-weight="400" font-size="30" transform="matrix(6.12323e-17 1 -1 6.12323e-17 883.904 606)">SRB + up </text><text fill="#FFFFFF" font-family="Calibri,Calibri_MSFontService,Arial" font-weight="400" font-size="23" transform="matrix(6.12323e-17 1 -1 6.12323e-17 883.904 720)">256</text><text fill="#FFFFFF" font-family="Calibri,Calibri_MSFontService,Arial" font-weight="400" font-size="23" transform="matrix(6.12323e-17 1 -1 6.12323e-17 883.904 755)">→</text><text fill="#FFFFFF" font-family="Calibri,Calibri_MSFontService,Arial" font-weight="400" font-size="23" transform="matrix(6.12323e-17 1 -1 6.12323e-17 883.904 776)">128</text><rect x="931" y="578" width="57" height="262" stroke="#2F5597" stroke-width="1.66667" stroke-miterlimit="8" stroke-dasharray="13.3333 5" fill="#8FAADC"/><text fill="#FFFFFF" font-family="Calibri,Calibri_MSFontService,Arial" font-weight="400" font-size="30" transform="matrix(6.12323e-17 1 -1 6.12323e-17 949.242 610)">SRB + up </text><text fill="#FFFFFF" font-family="Calibri,Calibri_MSFontService,Arial" font-weight="400" font-size="23" transform="matrix(6.12323e-17 1 -1 6.12323e-17 949.242 723)">128 →64</text><text font-family="Calibri,Calibri_MSFontService,Arial" font-weight="400" font-size="15" transform="translate(134.39 757)">the size depends on </text><text font-family="Calibri,Calibri_MSFontService,Arial" font-weight="400" font-size="15" transform="translate(134.39 775)">the number of up</text><text font-family="Calibri,Calibri_MSFontService,Arial" font-weight="400" font-size="15" transform="translate(241.682 775)">-</text><text font-family="Calibri,Calibri_MSFontService,Arial" font-weight="400" font-size="15" transform="translate(134.39 793)">sampling layers</text><path d="M1053.5 709.083 1085.21 709.083 1085.21 709.917 1053.5 709.917ZM1083.54 704.5 1093.54 709.5 1083.54 714.5Z"/><path d="M371.5 709.083 399.899 709.083 399.899 709.917 371.5 709.917ZM398.233 704.5 408.233 709.5 398.233 714.5Z"/><path d="M273.5 709.083 306.018 709.083 306.018 709.917 273.5 709.917ZM304.352 704.5 314.352 709.5 304.352 714.5Z"/><rect x="134" y="456" width="197" height="92" fill="#8497B0"/><text fill="#FFFFFF" font-family="Calibri,Calibri_MSFontService,Arial" font-weight="400" font-size="30" transform="translate(172.36 494)">7</text><text fill="#FFFFFF" font-family="Calibri,Calibri_MSFontService,Arial" font-weight="400" font-size="30" transform="translate(187.568 494)">-</text><text fill="#FFFFFF" font-family="Calibri,Calibri_MSFontService,Arial" font-weight="400" font-size="30" transform="translate(196.735 494)">channel </text><text fill="#FFFFFF" font-family="Calibri,Calibri_MSFontService,Arial" font-weight="400" font-size="30" transform="translate(200.593 530)">input</text><rect x="134" y="681" width="139" height="57" fill="#4472C4"/><text fill="#FFFFFF" font-family="Calibri,Calibri_MSFontService,Arial" font-weight="400" font-size="30" transform="translate(168.882 719)">resize</text><path d="M331.5 502.083 334.833 502.083 334.833 502.917 331.5 502.917ZM337.333 502.083 340.667 502.083 340.667 502.917 337.333 502.917ZM343.167 502.083 346.5 502.083 346.5 502.917 343.167 502.917ZM349 502.083 352.333 502.083 352.333 502.917 349 502.917ZM354.833 502.083 358.167 502.083 358.167 502.917 354.833 502.917ZM360.667 502.083 364 502.083 364 502.917 360.667 502.917ZM366.5 502.083 369.833 502.083 369.833 502.917 366.5 502.917ZM372.333 502.083 375.667 502.083 375.667 502.917 372.333 502.917ZM378.167 502.083 381.5 502.083 381.5 502.917 378.167 502.917ZM384 502.083 387.333 502.083 387.333 502.917 384 502.917ZM389.833 502.083 393.167 502.083 393.167 502.917 389.833 502.917ZM395.667 502.083 399 502.083 399 502.917 395.667 502.917ZM401.5 502.083 404.833 502.083 404.833 502.917 401.5 502.917ZM407.333 502.083 410.667 502.083 410.667 502.917 407.333 502.917ZM413.167 502.083 416.5 502.083 416.5 502.917 413.167 502.917ZM419 502.083 422.333 502.083 422.333 502.917 419 502.917ZM424.833 502.083 428.167 502.083 428.167 502.917 424.833 502.917ZM430.667 502.083 434 502.083 434 502.917 430.667 502.917ZM436.5 502.083 437.294 502.083 437.294 505.456 436.46 505.456 436.46 502.5 436.877 502.917 436.5 502.917ZM437.294 507.956 437.294 511.29 436.46 511.29 436.46 507.956ZM437.294 513.79 437.294 517.123 436.46 517.123 436.46 513.79ZM437.294 519.623 437.294 522.956 436.46 522.956 436.46 519.623ZM437.294 525.456 437.294 528.79 436.46 528.79 436.46 525.456ZM437.294 531.29 437.294 534.623 436.46 534.623 436.46 531.29ZM437.294 537.123 437.294 540.456 436.46 540.456 436.46 537.123ZM437.294 542.956 437.294 546.29 436.46 546.29 436.46 542.956ZM437.294 548.79 437.294 552.123 436.46 552.123 436.46 548.79ZM437.294 554.623 437.294 557.956 436.46 557.956 436.46 554.623ZM437.294 560.456 437.294 563.79 436.46 563.79 436.46 560.456ZM437.294 566.29 437.294 569.623 436.46 569.623 436.46 566.29ZM441.877 568.506 436.877 578.506 431.877 568.506Z" fill="#333F50"/><path d="M331.5 502.083 334.833 502.083 334.833 502.917 331.5 502.917ZM337.333 502.083 340.667 502.083 340.667 502.917 337.333 502.917ZM343.167 502.083 346.5 502.083 346.5 502.917 343.167 502.917ZM349 502.083 352.333 502.083 352.333 502.917 349 502.917ZM354.833 502.083 358.167 502.083 358.167 502.917 354.833 502.917ZM360.667 502.083 364 502.083 364 502.917 360.667 502.917ZM366.5 502.083 369.833 502.083 369.833 502.917 366.5 502.917ZM372.333 502.083 375.667 502.083 375.667 502.917 372.333 502.917ZM378.167 502.083 381.5 502.083 381.5 502.917 378.167 502.917ZM384 502.083 387.333 502.083 387.333 502.917 384 502.917ZM389.833 502.083 393.167 502.083 393.167 502.917 389.833 502.917ZM395.667 502.083 399 502.083 399 502.917 395.667 502.917ZM401.5 502.083 404.833 502.083 404.833 502.917 401.5 502.917ZM407.333 502.083 410.667 502.083 410.667 502.917 407.333 502.917ZM413.167 502.083 416.5 502.083 416.5 502.917 413.167 502.917ZM419 502.083 422.333 502.083 422.333 502.917 419 502.917ZM424.833 502.083 428.167 502.083 428.167 502.917 424.833 502.917ZM430.667 502.083 434 502.083 434 502.917 430.667 502.917ZM436.5 502.083 439.833 502.083 439.833 502.917 436.5 502.917ZM442.333 502.083 445.667 502.083 445.667 502.917 442.333 502.917ZM448.167 502.083 451.5 502.083 451.5 502.917 448.167 502.917ZM454 502.083 457.333 502.083 457.333 502.917 454 502.917ZM459.833 502.083 463.167 502.083 463.167 502.917 459.833 502.917ZM465.667 502.083 469 502.083 469 502.917 465.667 502.917ZM471.5 502.083 474.833 502.083 474.833 502.917 471.5 502.917ZM477.333 502.083 480.667 502.083 480.667 502.917 477.333 502.917ZM483.167 502.083 486.5 502.083 486.5 502.917 483.167 502.917ZM489 502.083 492.333 502.083 492.333 502.917 489 502.917ZM494.833 502.083 498.167 502.083 498.167 502.917 494.833 502.917ZM500.667 502.083 502.631 502.083 502.631 504.285 501.798 504.285 501.798 502.5 502.215 502.917 500.667 502.917ZM502.631 506.785 502.631 510.119 501.798 510.119 501.798 506.785ZM502.631 512.619 502.631 515.952 501.798 515.952 501.798 512.619ZM502.631 518.452 502.631 521.785 501.798 521.785 501.798 518.452ZM502.631 524.285 502.631 527.619 501.798 527.619 501.798 524.285ZM502.631 530.119 502.631 533.452 501.798 533.452 501.798 530.119ZM502.631 535.952 502.631 539.285 501.798 539.285 501.798 535.952ZM502.631 541.785 502.631 545.119 501.798 545.119 501.798 541.785ZM502.631 547.619 502.631 550.952 501.798 550.952 501.798 547.619ZM502.631 553.452 502.631 556.785 501.798 556.785 501.798 553.452ZM502.631 559.285 502.631 562.619 501.798 562.619 501.798 559.285ZM502.631 565.119 502.631 568.452 501.798 568.452 501.798 565.119ZM507.215 568.506 502.215 578.506 497.215 568.506Z" fill="#333F50"/><path d="M331.5 502.083 334.833 502.083 334.833 502.917 331.5 502.917ZM337.333 502.083 340.667 502.083 340.667 502.917 337.333 502.917ZM343.167 502.083 346.5 502.083 346.5 502.917 343.167 502.917ZM349 502.083 352.333 502.083 352.333 502.917 349 502.917ZM354.833 502.083 358.167 502.083 358.167 502.917 354.833 502.917ZM360.667 502.083 364 502.083 364 502.917 360.667 502.917ZM366.5 502.083 369.833 502.083 369.833 502.917 366.5 502.917ZM372.333 502.083 375.667 502.083 375.667 502.917 372.333 502.917ZM378.167 502.083 381.5 502.083 381.5 502.917 378.167 502.917ZM384 502.083 387.333 502.083 387.333 502.917 384 502.917ZM389.833 502.083 393.167 502.083 393.167 502.917 389.833 502.917ZM395.667 502.083 399 502.083 399 502.917 395.667 502.917ZM401.5 502.083 404.833 502.083 404.833 502.917 401.5 502.917ZM407.333 502.083 410.667 502.083 410.667 502.917 407.333 502.917ZM413.167 502.083 416.5 502.083 416.5 502.917 413.167 502.917ZM419 502.083 422.333 502.083 422.333 502.917 419 502.917ZM424.833 502.083 428.167 502.083 428.167 502.917 424.833 502.917ZM430.667 502.083 434 502.083 434 502.917 430.667 502.917ZM436.5 502.083 439.833 502.083 439.833 502.917 436.5 502.917ZM442.333 502.083 445.667 502.083 445.667 502.917 442.333 502.917ZM448.167 502.083 451.5 502.083 451.5 502.917 448.167 502.917ZM454 502.083 457.333 502.083 457.333 502.917 454 502.917ZM459.833 502.083 463.167 502.083 463.167 502.917 459.833 502.917ZM465.667 502.083 469 502.083 469 502.917 465.667 502.917ZM471.5 502.083 474.833 502.083 474.833 502.917 471.5 502.917ZM477.333 502.083 480.667 502.083 480.667 502.917 477.333 502.917ZM483.167 502.083 486.5 502.083 486.5 502.917 483.167 502.917ZM489 502.083 492.333 502.083 492.333 502.917 489 502.917ZM494.833 502.083 498.167 502.083 498.167 502.917 494.833 502.917ZM500.667 502.083 504 502.083 504 502.917 500.667 502.917ZM506.5 502.083 509.833 502.083 509.833 502.917 506.5 502.917ZM512.333 502.083 515.667 502.083 515.667 502.917 512.333 502.917ZM518.167 502.083 521.5 502.083 521.5 502.917 518.167 502.917ZM524 502.083 527.333 502.083 527.333 502.917 524 502.917ZM529.833 502.083 533.167 502.083 533.167 502.917 529.833 502.917ZM535.667 502.083 539 502.083 539 502.917 535.667 502.917ZM541.5 502.083 544.833 502.083 544.833 502.917 541.5 502.917ZM547.333 502.083 550.667 502.083 550.667 502.917 547.333 502.917ZM553.167 502.083 556.5 502.083 556.5 502.917 553.167 502.917ZM559 502.083 562.333 502.083 562.333 502.917 559 502.917ZM564.833 502.083 568.167 502.083 568.167 502.917 564.833 502.917ZM570.667 502.083 574 502.083 574 502.917 570.667 502.917ZM576.5 502.083 579.833 502.083 579.833 502.917 576.5 502.917ZM582.333 502.083 585.667 502.083 585.667 502.917 582.333 502.917ZM588.167 502.083 591.5 502.083 591.5 502.917 588.167 502.917ZM594 502.083 597.333 502.083 597.333 502.917 594 502.917ZM599.833 502.083 603.167 502.083 603.167 502.917 599.833 502.917ZM605.667 502.083 609 502.083 609 502.917 605.667 502.917ZM611.5 502.083 614.833 502.083 614.833 502.917 611.5 502.917ZM617.333 502.083 620.667 502.083 620.667 502.917 617.333 502.917ZM623.167 502.083 626.5 502.083 626.5 502.917 623.167 502.917ZM629 502.083 632.333 502.083 632.333 502.917 629 502.917ZM633.307 504.443 633.307 507.776 632.474 507.776 632.474 504.443ZM633.307 510.276 633.307 513.61 632.474 513.61 632.474 510.276ZM633.307 516.11 633.307 519.443 632.474 519.443 632.474 516.11ZM633.307 521.943 633.307 525.276 632.474 525.276 632.474 521.943ZM633.307 527.776 633.307 531.11 632.474 531.11 632.474 527.776ZM633.307 533.61 633.307 536.943 632.474 536.943 632.474 533.61ZM633.307 539.443 633.307 542.776 632.474 542.776 632.474 539.443ZM633.307 545.276 633.307 548.61 632.474 548.61 632.474 545.276ZM633.307 551.11 633.307 554.443 632.474 554.443 632.474 551.11ZM633.307 556.943 633.307 560.276 632.474 560.276 632.474 556.943ZM633.307 562.776 633.307 566.11 632.474 566.11 632.474 562.776ZM633.307 568.61 633.307 570.173 632.474 570.173 632.474 568.61ZM637.89 568.506 632.89 578.506 627.89 568.506Z" fill="#333F50"/><path d="M331.5 502.083 334.833 502.083 334.833 502.917 331.5 502.917ZM337.333 502.083 340.667 502.083 340.667 502.917 337.333 502.917ZM343.167 502.083 346.5 502.083 346.5 502.917 343.167 502.917ZM349 502.083 352.333 502.083 352.333 502.917 349 502.917ZM354.833 502.083 358.167 502.083 358.167 502.917 354.833 502.917ZM360.667 502.083 364 502.083 364 502.917 360.667 502.917ZM366.5 502.083 369.833 502.083 369.833 502.917 366.5 502.917ZM372.333 502.083 375.667 502.083 375.667 502.917 372.333 502.917ZM378.167 502.083 381.5 502.083 381.5 502.917 378.167 502.917ZM384 502.083 387.333 502.083 387.333 502.917 384 502.917ZM389.833 502.083 393.167 502.083 393.167 502.917 389.833 502.917ZM395.667 502.083 399 502.083 399 502.917 395.667 502.917ZM401.5 502.083 404.833 502.083 404.833 502.917 401.5 502.917ZM407.333 502.083 410.667 502.083 410.667 502.917 407.333 502.917ZM413.167 502.083 416.5 502.083 416.5 502.917 413.167 502.917ZM419 502.083 422.333 502.083 422.333 502.917 419 502.917ZM424.833 502.083 428.167 502.083 428.167 502.917 424.833 502.917ZM430.667 502.083 434 502.083 434 502.917 430.667 502.917ZM436.5 502.083 439.833 502.083 439.833 502.917 436.5 502.917ZM442.333 502.083 445.667 502.083 445.667 502.917 442.333 502.917ZM448.167 502.083 451.5 502.083 451.5 502.917 448.167 502.917ZM454 502.083 457.333 502.083 457.333 502.917 454 502.917ZM459.833 502.083 463.167 502.083 463.167 502.917 459.833 502.917ZM465.667 502.083 469 502.083 469 502.917 465.667 502.917ZM471.5 502.083 474.833 502.083 474.833 502.917 471.5 502.917ZM477.333 502.083 480.667 502.083 480.667 502.917 477.333 502.917ZM483.167 502.083 486.5 502.083 486.5 502.917 483.167 502.917ZM489 502.083 492.333 502.083 492.333 502.917 489 502.917ZM494.833 502.083 498.167 502.083 498.167 502.917 494.833 502.917ZM500.667 502.083 504 502.083 504 502.917 500.667 502.917ZM506.5 502.083 509.833 502.083 509.833 502.917 506.5 502.917ZM512.333 502.083 515.667 502.083 515.667 502.917 512.333 502.917ZM518.167 502.083 521.5 502.083 521.5 502.917 518.167 502.917ZM524 502.083 527.333 502.083 527.333 502.917 524 502.917ZM529.833 502.083 533.167 502.083 533.167 502.917 529.833 502.917ZM535.667 502.083 539 502.083 539 502.917 535.667 502.917ZM541.5 502.083 544.833 502.083 544.833 502.917 541.5 502.917ZM547.333 502.083 550.667 502.083 550.667 502.917 547.333 502.917ZM553.167 502.083 556.5 502.083 556.5 502.917 553.167 502.917ZM559 502.083 562.333 502.083 562.333 502.917 559 502.917ZM564.833 502.083 568.167 502.083 568.167 502.917 564.833 502.917ZM570.667 502.083 574 502.083 574 502.917 570.667 502.917ZM576.5 502.083 579.833 502.083 579.833 502.917 576.5 502.917ZM582.333 502.083 585.667 502.083 585.667 502.917 582.333 502.917ZM588.167 502.083 591.5 502.083 591.5 502.917 588.167 502.917ZM594 502.083 597.333 502.083 597.333 502.917 594 502.917ZM599.833 502.083 603.167 502.083 603.167 502.917 599.833 502.917ZM605.667 502.083 609 502.083 609 502.917 605.667 502.917ZM611.5 502.083 614.833 502.083 614.833 502.917 611.5 502.917ZM617.333 502.083 620.667 502.083 620.667 502.917 617.333 502.917ZM623.167 502.083 626.5 502.083 626.5 502.917 623.167 502.917ZM629 502.083 632.333 502.083 632.333 502.917 629 502.917ZM634.833 502.083 638.167 502.083 638.167 502.917 634.833 502.917ZM640.667 502.083 644 502.083 644 502.917 640.667 502.917ZM646.5 502.083 649.833 502.083 649.833 502.917 646.5 502.917ZM652.333 502.083 655.667 502.083 655.667 502.917 652.333 502.917ZM658.167 502.083 661.5 502.083 661.5 502.917 658.167 502.917ZM664 502.083 667.333 502.083 667.333 502.917 664 502.917ZM669.833 502.083 673.167 502.083 673.167 502.917 669.833 502.917ZM675.667 502.083 679 502.083 679 502.917 675.667 502.917ZM681.5 502.083 684.833 502.083 684.833 502.917 681.5 502.917ZM687.333 502.083 690.667 502.083 690.667 502.917 687.333 502.917ZM693.167 502.083 696.5 502.083 696.5 502.917 693.167 502.917ZM698.645 503.272 698.645 506.605 697.811 506.605 697.811 503.272ZM698.645 509.105 698.645 512.439 697.811 512.439 697.811 509.105ZM698.645 514.939 698.645 518.272 697.811 518.272 697.811 514.939ZM698.645 520.772 698.645 524.105 697.811 524.105 697.811 520.772ZM698.645 526.605 698.645 529.939 697.811 529.939 697.811 526.605ZM698.645 532.439 698.645 535.772 697.811 535.772 697.811 532.439ZM698.645 538.272 698.645 541.605 697.811 541.605 697.811 538.272ZM698.645 544.105 698.645 547.439 697.811 547.439 697.811 544.105ZM698.645 549.939 698.645 553.272 697.811 553.272 697.811 549.939ZM698.645 555.772 698.645 559.105 697.811 559.105 697.811 555.772ZM698.645 561.605 698.645 564.939 697.811 564.939 697.811 561.605ZM698.645 567.439 698.645 570.173 697.811 570.173 697.811 567.439ZM703.228 568.506 698.228 578.506 693.228 568.506Z" fill="#333F50"/><path d="M331.5 502.083 334.833 502.083 334.833 502.917 331.5 502.917ZM337.333 502.083 340.667 502.083 340.667 502.917 337.333 502.917ZM343.167 502.083 346.5 502.083 346.5 502.917 343.167 502.917ZM349 502.083 352.333 502.083 352.333 502.917 349 502.917ZM354.833 502.083 358.167 502.083 358.167 502.917 354.833 502.917ZM360.667 502.083 364 502.083 364 502.917 360.667 502.917ZM366.5 502.083 369.833 502.083 369.833 502.917 366.5 502.917ZM372.333 502.083 375.667 502.083 375.667 502.917 372.333 502.917ZM378.167 502.083 381.5 502.083 381.5 502.917 378.167 502.917ZM384 502.083 387.333 502.083 387.333 502.917 384 502.917ZM389.833 502.083 393.167 502.083 393.167 502.917 389.833 502.917ZM395.667 502.083 399 502.083 399 502.917 395.667 502.917ZM401.5 502.083 404.833 502.083 404.833 502.917 401.5 502.917ZM407.333 502.083 410.667 502.083 410.667 502.917 407.333 502.917ZM413.167 502.083 416.5 502.083 416.5 502.917 413.167 502.917ZM419 502.083 422.333 502.083 422.333 502.917 419 502.917ZM424.833 502.083 428.167 502.083 428.167 502.917 424.833 502.917ZM430.667 502.083 434 502.083 434 502.917 430.667 502.917ZM436.5 502.083 439.833 502.083 439.833 502.917 436.5 502.917ZM442.333 502.083 445.667 502.083 445.667 502.917 442.333 502.917ZM448.167 502.083 451.5 502.083 451.5 502.917 448.167 502.917ZM454 502.083 457.333 502.083 457.333 502.917 454 502.917ZM459.833 502.083 463.167 502.083 463.167 502.917 459.833 502.917ZM465.667 502.083 469 502.083 469 502.917 465.667 502.917ZM471.5 502.083 474.833 502.083 474.833 502.917 471.5 502.917ZM477.333 502.083 480.667 502.083 480.667 502.917 477.333 502.917ZM483.167 502.083 486.5 502.083 486.5 502.917 483.167 502.917ZM489 502.083 492.333 502.083 492.333 502.917 489 502.917ZM494.833 502.083 498.167 502.083 498.167 502.917 494.833 502.917ZM500.667 502.083 504 502.083 504 502.917 500.667 502.917ZM506.5 502.083 509.833 502.083 509.833 502.917 506.5 502.917ZM512.333 502.083 515.667 502.083 515.667 502.917 512.333 502.917ZM518.167 502.083 521.5 502.083 521.5 502.917 518.167 502.917ZM524 502.083 527.333 502.083 527.333 502.917 524 502.917ZM529.833 502.083 533.167 502.083 533.167 502.917 529.833 502.917ZM535.667 502.083 539 502.083 539 502.917 535.667 502.917ZM541.5 502.083 544.833 502.083 544.833 502.917 541.5 502.917ZM547.333 502.083 550.667 502.083 550.667 502.917 547.333 502.917ZM553.167 502.083 556.5 502.083 556.5 502.917 553.167 502.917ZM559 502.083 562.333 502.083 562.333 502.917 559 502.917ZM564.833 502.083 568.167 502.083 568.167 502.917 564.833 502.917ZM570.667 502.083 574 502.083 574 502.917 570.667 502.917ZM576.5 502.083 579.833 502.083 579.833 502.917 576.5 502.917ZM582.333 502.083 585.667 502.083 585.667 502.917 582.333 502.917ZM588.167 502.083 591.5 502.083 591.5 502.917 588.167 502.917ZM594 502.083 597.333 502.083 597.333 502.917 594 502.917ZM599.833 502.083 603.167 502.083 603.167 502.917 599.833 502.917ZM605.667 502.083 609 502.083 609 502.917 605.667 502.917ZM611.5 502.083 614.833 502.083 614.833 502.917 611.5 502.917ZM617.333 502.083 620.667 502.083 620.667 502.917 617.333 502.917ZM623.167 502.083 626.5 502.083 626.5 502.917 623.167 502.917ZM629 502.083 632.333 502.083 632.333 502.917 629 502.917ZM634.833 502.083 638.167 502.083 638.167 502.917 634.833 502.917ZM640.667 502.083 644 502.083 644 502.917 640.667 502.917ZM646.5 502.083 649.833 502.083 649.833 502.917 646.5 502.917ZM652.333 502.083 655.667 502.083 655.667 502.917 652.333 502.917ZM658.167 502.083 661.5 502.083 661.5 502.917 658.167 502.917ZM664 502.083 667.333 502.083 667.333 502.917 664 502.917ZM669.833 502.083 673.167 502.083 673.167 502.917 669.833 502.917ZM675.667 502.083 679 502.083 679 502.917 675.667 502.917ZM681.5 502.083 684.833 502.083 684.833 502.917 681.5 502.917ZM687.333 502.083 690.667 502.083 690.667 502.917 687.333 502.917ZM693.167 502.083 696.5 502.083 696.5 502.917 693.167 502.917ZM699 502.083 702.333 502.083 702.333 502.917 699 502.917ZM704.833 502.083 708.167 502.083 708.167 502.917 704.833 502.917ZM710.667 502.083 714 502.083 714 502.917 710.667 502.917ZM716.5 502.083 719.833 502.083 719.833 502.917 716.5 502.917ZM722.333 502.083 725.667 502.083 725.667 502.917 722.333 502.917ZM728.167 502.083 731.5 502.083 731.5 502.917 728.167 502.917ZM734 502.083 737.333 502.083 737.333 502.917 734 502.917ZM739.833 502.083 743.167 502.083 743.167 502.917 739.833 502.917ZM745.667 502.083 749 502.083 749 502.917 745.667 502.917ZM751.5 502.083 754.833 502.083 754.833 502.917 751.5 502.917ZM757.333 502.083 760.667 502.083 760.667 502.917 757.333 502.917ZM763.167 502.083 763.983 502.083 763.983 505.434 763.149 505.434 763.149 502.5 763.566 502.917 763.167 502.917ZM763.983 507.934 763.983 511.267 763.149 511.267 763.149 507.934ZM763.983 513.767 763.983 517.101 763.149 517.101 763.149 513.767ZM763.983 519.601 763.983 522.934 763.149 522.934 763.149 519.601ZM763.983 525.434 763.983 528.767 763.149 528.767 763.149 525.434ZM763.983 531.267 763.983 534.601 763.149 534.601 763.149 531.267ZM763.983 537.101 763.983 540.434 763.149 540.434 763.149 537.101ZM763.983 542.934 763.983 546.267 763.149 546.267 763.149 542.934ZM763.983 548.767 763.983 552.101 763.149 552.101 763.149 548.767ZM763.983 554.601 763.983 557.934 763.149 557.934 763.149 554.601ZM763.983 560.434 763.983 563.767 763.149 563.767 763.149 560.434ZM763.983 566.267 763.983 569.601 763.149 569.601 763.149 566.267ZM768.566 568.506 763.566 578.506 758.566 568.506Z" fill="#333F50"/><path d="M331.5 502.083 334.833 502.083 334.833 502.917 331.5 502.917ZM337.333 502.083 340.667 502.083 340.667 502.917 337.333 502.917ZM343.167 502.083 346.5 502.083 346.5 502.917 343.167 502.917ZM349 502.083 352.333 502.083 352.333 502.917 349 502.917ZM354.833 502.083 358.167 502.083 358.167 502.917 354.833 502.917ZM360.667 502.083 364 502.083 364 502.917 360.667 502.917ZM366.5 502.083 369.833 502.083 369.833 502.917 366.5 502.917ZM372.333 502.083 375.667 502.083 375.667 502.917 372.333 502.917ZM378.167 502.083 381.5 502.083 381.5 502.917 378.167 502.917ZM384 502.083 387.333 502.083 387.333 502.917 384 502.917ZM389.833 502.083 393.167 502.083 393.167 502.917 389.833 502.917ZM395.667 502.083 399 502.083 399 502.917 395.667 502.917ZM401.5 502.083 404.833 502.083 404.833 502.917 401.5 502.917ZM407.333 502.083 410.667 502.083 410.667 502.917 407.333 502.917ZM413.167 502.083 416.5 502.083 416.5 502.917 413.167 502.917ZM419 502.083 422.333 502.083 422.333 502.917 419 502.917ZM424.833 502.083 428.167 502.083 428.167 502.917 424.833 502.917ZM430.667 502.083 434 502.083 434 502.917 430.667 502.917ZM436.5 502.083 439.833 502.083 439.833 502.917 436.5 502.917ZM442.333 502.083 445.667 502.083 445.667 502.917 442.333 502.917ZM448.167 502.083 451.5 502.083 451.5 502.917 448.167 502.917ZM454 502.083 457.333 502.083 457.333 502.917 454 502.917ZM459.833 502.083 463.167 502.083 463.167 502.917 459.833 502.917ZM465.667 502.083 469 502.083 469 502.917 465.667 502.917ZM471.5 502.083 474.833 502.083 474.833 502.917 471.5 502.917ZM477.333 502.083 480.667 502.083 480.667 502.917 477.333 502.917ZM483.167 502.083 486.5 502.083 486.5 502.917 483.167 502.917ZM489 502.083 492.333 502.083 492.333 502.917 489 502.917ZM494.833 502.083 498.167 502.083 498.167 502.917 494.833 502.917ZM500.667 502.083 504 502.083 504 502.917 500.667 502.917ZM506.5 502.083 509.833 502.083 509.833 502.917 506.5 502.917ZM512.333 502.083 515.667 502.083 515.667 502.917 512.333 502.917ZM518.167 502.083 521.5 502.083 521.5 502.917 518.167 502.917ZM524 502.083 527.333 502.083 527.333 502.917 524 502.917ZM529.833 502.083 533.167 502.083 533.167 502.917 529.833 502.917ZM535.667 502.083 539 502.083 539 502.917 535.667 502.917ZM541.5 502.083 544.833 502.083 544.833 502.917 541.5 502.917ZM547.333 502.083 550.667 502.083 550.667 502.917 547.333 502.917ZM553.167 502.083 556.5 502.083 556.5 502.917 553.167 502.917ZM559 502.083 562.333 502.083 562.333 502.917 559 502.917ZM564.833 502.083 568.167 502.083 568.167 502.917 564.833 502.917ZM570.667 502.083 574 502.083 574 502.917 570.667 502.917ZM576.5 502.083 579.833 502.083 579.833 502.917 576.5 502.917ZM582.333 502.083 585.667 502.083 585.667 502.917 582.333 502.917ZM588.167 502.083 591.5 502.083 591.5 502.917 588.167 502.917ZM594 502.083 597.333 502.083 597.333 502.917 594 502.917ZM599.833 502.083 603.167 502.083 603.167 502.917 599.833 502.917ZM605.667 502.083 609 502.083 609 502.917 605.667 502.917ZM611.5 502.083 614.833 502.083 614.833 502.917 611.5 502.917ZM617.333 502.083 620.667 502.083 620.667 502.917 617.333 502.917ZM623.167 502.083 626.5 502.083 626.5 502.917 623.167 502.917ZM629 502.083 632.333 502.083 632.333 502.917 629 502.917ZM634.833 502.083 638.167 502.083 638.167 502.917 634.833 502.917ZM640.667 502.083 644 502.083 644 502.917 640.667 502.917ZM646.5 502.083 649.833 502.083 649.833 502.917 646.5 502.917ZM652.333 502.083 655.667 502.083 655.667 502.917 652.333 502.917ZM658.167 502.083 661.5 502.083 661.5 502.917 658.167 502.917ZM664 502.083 667.333 502.083 667.333 502.917 664 502.917ZM669.833 502.083 673.167 502.083 673.167 502.917 669.833 502.917ZM675.667 502.083 679 502.083 679 502.917 675.667 502.917ZM681.5 502.083 684.833 502.083 684.833 502.917 681.5 502.917ZM687.333 502.083 690.667 502.083 690.667 502.917 687.333 502.917ZM693.167 502.083 696.5 502.083 696.5 502.917 693.167 502.917ZM699 502.083 702.333 502.083 702.333 502.917 699 502.917ZM704.833 502.083 708.167 502.083 708.167 502.917 704.833 502.917ZM710.667 502.083 714 502.083 714 502.917 710.667 502.917ZM716.5 502.083 719.833 502.083 719.833 502.917 716.5 502.917ZM722.333 502.083 725.667 502.083 725.667 502.917 722.333 502.917ZM728.167 502.083 731.5 502.083 731.5 502.917 728.167 502.917ZM734 502.083 737.333 502.083 737.333 502.917 734 502.917ZM739.833 502.083 743.167 502.083 743.167 502.917 739.833 502.917ZM745.667 502.083 749 502.083 749 502.917 745.667 502.917ZM751.5 502.083 754.833 502.083 754.833 502.917 751.5 502.917ZM757.333 502.083 760.667 502.083 760.667 502.917 757.333 502.917ZM763.167 502.083 766.5 502.083 766.5 502.917 763.167 502.917ZM769 502.083 772.333 502.083 772.333 502.917 769 502.917ZM774.833 502.083 778.167 502.083 778.167 502.917 774.833 502.917ZM780.667 502.083 784 502.083 784 502.917 780.667 502.917ZM786.5 502.083 789.833 502.083 789.833 502.917 786.5 502.917ZM792.333 502.083 795.667 502.083 795.667 502.917 792.333 502.917ZM798.167 502.083 801.5 502.083 801.5 502.917 798.167 502.917ZM804 502.083 807.333 502.083 807.333 502.917 804 502.917ZM809.833 502.083 813.167 502.083 813.167 502.917 809.833 502.917ZM815.667 502.083 819 502.083 819 502.917 815.667 502.917ZM821.5 502.083 824.833 502.083 824.833 502.917 821.5 502.917ZM827.333 502.083 829.32 502.083 829.32 504.263 828.487 504.263 828.487 502.5 828.904 502.917 827.333 502.917ZM829.32 506.763 829.32 510.096 828.487 510.096 828.487 506.763ZM829.32 512.596 829.32 515.93 828.487 515.93 828.487 512.596ZM829.32 518.43 829.32 521.763 828.487 521.763 828.487 518.43ZM829.32 524.263 829.32 527.596 828.487 527.596 828.487 524.263ZM829.32 530.096 829.32 533.43 828.487 533.43 828.487 530.096ZM829.32 535.93 829.32 539.263 828.487 539.263 828.487 535.93ZM829.32 541.763 829.32 545.096 828.487 545.096 828.487 541.763ZM829.32 547.596 829.32 550.93 828.487 550.93 828.487 547.596ZM829.32 553.43 829.32 556.763 828.487 556.763 828.487 553.43ZM829.32 559.263 829.32 562.596 828.487 562.596 828.487 559.263ZM829.32 565.096 829.32 568.43 828.487 568.43 828.487 565.096ZM833.904 568.506 828.904 578.506 823.904 568.506Z" fill="#333F50"/><path d="M331.5 502.083 334.833 502.083 334.833 502.917 331.5 502.917ZM337.333 502.083 340.667 502.083 340.667 502.917 337.333 502.917ZM343.167 502.083 346.5 502.083 346.5 502.917 343.167 502.917ZM349 502.083 352.333 502.083 352.333 502.917 349 502.917ZM354.833 502.083 358.167 502.083 358.167 502.917 354.833 502.917ZM360.667 502.083 364 502.083 364 502.917 360.667 502.917ZM366.5 502.083 369.833 502.083 369.833 502.917 366.5 502.917ZM372.333 502.083 375.667 502.083 375.667 502.917 372.333 502.917ZM378.167 502.083 381.5 502.083 381.5 502.917 378.167 502.917ZM384 502.083 387.333 502.083 387.333 502.917 384 502.917ZM389.833 502.083 393.167 502.083 393.167 502.917 389.833 502.917ZM395.667 502.083 399 502.083 399 502.917 395.667 502.917ZM401.5 502.083 404.833 502.083 404.833 502.917 401.5 502.917ZM407.333 502.083 410.667 502.083 410.667 502.917 407.333 502.917ZM413.167 502.083 416.5 502.083 416.5 502.917 413.167 502.917ZM419 502.083 422.333 502.083 422.333 502.917 419 502.917ZM424.833 502.083 428.167 502.083 428.167 502.917 424.833 502.917ZM430.667 502.083 434 502.083 434 502.917 430.667 502.917ZM436.5 502.083 439.833 502.083 439.833 502.917 436.5 502.917ZM442.333 502.083 445.667 502.083 445.667 502.917 442.333 502.917ZM448.167 502.083 451.5 502.083 451.5 502.917 448.167 502.917ZM454 502.083 457.333 502.083 457.333 502.917 454 502.917ZM459.833 502.083 463.167 502.083 463.167 502.917 459.833 502.917ZM465.667 502.083 469 502.083 469 502.917 465.667 502.917ZM471.5 502.083 474.833 502.083 474.833 502.917 471.5 502.917ZM477.333 502.083 480.667 502.083 480.667 502.917 477.333 502.917ZM483.167 502.083 486.5 502.083 486.5 502.917 483.167 502.917ZM489 502.083 492.333 502.083 492.333 502.917 489 502.917ZM494.833 502.083 498.167 502.083 498.167 502.917 494.833 502.917ZM500.667 502.083 504 502.083 504 502.917 500.667 502.917ZM506.5 502.083 509.833 502.083 509.833 502.917 506.5 502.917ZM512.333 502.083 515.667 502.083 515.667 502.917 512.333 502.917ZM518.167 502.083 521.5 502.083 521.5 502.917 518.167 502.917ZM524 502.083 527.333 502.083 527.333 502.917 524 502.917ZM529.833 502.083 533.167 502.083 533.167 502.917 529.833 502.917ZM535.667 502.083 539 502.083 539 502.917 535.667 502.917ZM541.5 502.083 544.833 502.083 544.833 502.917 541.5 502.917ZM547.333 502.083 550.667 502.083 550.667 502.917 547.333 502.917ZM553.167 502.083 556.5 502.083 556.5 502.917 553.167 502.917ZM559 502.083 562.333 502.083 562.333 502.917 559 502.917ZM564.833 502.083 568.167 502.083 568.167 502.917 564.833 502.917ZM570.667 502.083 574 502.083 574 502.917 570.667 502.917ZM576.5 502.083 579.833 502.083 579.833 502.917 576.5 502.917ZM582.333 502.083 585.667 502.083 585.667 502.917 582.333 502.917ZM588.167 502.083 591.5 502.083 591.5 502.917 588.167 502.917ZM594 502.083 597.333 502.083 597.333 502.917 594 502.917ZM599.833 502.083 603.167 502.083 603.167 502.917 599.833 502.917ZM605.667 502.083 609 502.083 609 502.917 605.667 502.917ZM611.5 502.083 614.833 502.083 614.833 502.917 611.5 502.917ZM617.333 502.083 620.667 502.083 620.667 502.917 617.333 502.917ZM623.167 502.083 626.5 502.083 626.5 502.917 623.167 502.917ZM629 502.083 632.333 502.083 632.333 502.917 629 502.917ZM634.833 502.083 638.167 502.083 638.167 502.917 634.833 502.917ZM640.667 502.083 644 502.083 644 502.917 640.667 502.917ZM646.5 502.083 649.833 502.083 649.833 502.917 646.5 502.917ZM652.333 502.083 655.667 502.083 655.667 502.917 652.333 502.917ZM658.167 502.083 661.5 502.083 661.5 502.917 658.167 502.917ZM664 502.083 667.333 502.083 667.333 502.917 664 502.917ZM669.833 502.083 673.167 502.083 673.167 502.917 669.833 502.917ZM675.667 502.083 679 502.083 679 502.917 675.667 502.917ZM681.5 502.083 684.833 502.083 684.833 502.917 681.5 502.917ZM687.333 502.083 690.667 502.083 690.667 502.917 687.333 502.917ZM693.167 502.083 696.5 502.083 696.5 502.917 693.167 502.917ZM699 502.083 702.333 502.083 702.333 502.917 699 502.917ZM704.833 502.083 708.167 502.083 708.167 502.917 704.833 502.917ZM710.667 502.083 714 502.083 714 502.917 710.667 502.917ZM716.5 502.083 719.833 502.083 719.833 502.917 716.5 502.917ZM722.333 502.083 725.667 502.083 725.667 502.917 722.333 502.917ZM728.167 502.083 731.5 502.083 731.5 502.917 728.167 502.917ZM734 502.083 737.333 502.083 737.333 502.917 734 502.917ZM739.833 502.083 743.167 502.083 743.167 502.917 739.833 502.917ZM745.667 502.083 749 502.083 749 502.917 745.667 502.917ZM751.5 502.083 754.833 502.083 754.833 502.917 751.5 502.917ZM757.333 502.083 760.667 502.083 760.667 502.917 757.333 502.917ZM763.167 502.083 766.5 502.083 766.5 502.917 763.167 502.917ZM769 502.083 772.333 502.083 772.333 502.917 769 502.917ZM774.833 502.083 778.167 502.083 778.167 502.917 774.833 502.917ZM780.667 502.083 784 502.083 784 502.917 780.667 502.917ZM786.5 502.083 789.833 502.083 789.833 502.917 786.5 502.917ZM792.333 502.083 795.667 502.083 795.667 502.917 792.333 502.917ZM798.167 502.083 801.5 502.083 801.5 502.917 798.167 502.917ZM804 502.083 807.333 502.083 807.333 502.917 804 502.917ZM809.833 502.083 813.167 502.083 813.167 502.917 809.833 502.917ZM815.667 502.083 819 502.083 819 502.917 815.667 502.917ZM821.5 502.083 824.833 502.083 824.833 502.917 821.5 502.917ZM827.333 502.083 830.667 502.083 830.667 502.917 827.333 502.917ZM833.167 502.083 836.5 502.083 836.5 502.917 833.167 502.917ZM839 502.083 842.333 502.083 842.333 502.917 839 502.917ZM844.833 502.083 848.167 502.083 848.167 502.917 844.833 502.917ZM850.667 502.083 854 502.083 854 502.917 850.667 502.917ZM856.5 502.083 859.833 502.083 859.833 502.917 856.5 502.917ZM862.333 502.083 865.667 502.083 865.667 502.917 862.333 502.917ZM868.167 502.083 871.5 502.083 871.5 502.917 868.167 502.917ZM874 502.083 877.333 502.083 877.333 502.917 874 502.917ZM879.833 502.083 883.167 502.083 883.167 502.917 879.833 502.917ZM885.667 502.083 889 502.083 889 502.917 885.667 502.917ZM891.5 502.083 894.658 502.083 894.658 503.092 893.825 503.092 893.825 502.5 894.241 502.917 891.5 502.917ZM894.658 505.592 894.658 508.925 893.825 508.925 893.825 505.592ZM894.658 511.425 894.658 514.759 893.825 514.759 893.825 511.425ZM894.658 517.259 894.658 520.592 893.825 520.592 893.825 517.259ZM894.658 523.092 894.658 526.425 893.825 526.425 893.825 523.092ZM894.658 528.925 894.658 532.259 893.825 532.259 893.825 528.925ZM894.658 534.759 894.658 538.092 893.825 538.092 893.825 534.759ZM894.658 540.592 894.658 543.925 893.825 543.925 893.825 540.592ZM894.658 546.425 894.658 549.759 893.825 549.759 893.825 546.425ZM894.658 552.259 894.658 555.592 893.825 555.592 893.825 552.259ZM894.658 558.092 894.658 561.425 893.825 561.425 893.825 558.092ZM894.658 563.925 894.658 567.259 893.825 567.259 893.825 563.925ZM894.658 569.759 894.658 570.173 893.825 570.173 893.825 569.759ZM899.241 568.506 894.241 578.506 889.241 568.506Z" fill="#333F50"/><path d="M331.5 502.083 334.833 502.083 334.833 502.917 331.5 502.917ZM337.333 502.083 340.667 502.083 340.667 502.917 337.333 502.917ZM343.167 502.083 346.5 502.083 346.5 502.917 343.167 502.917ZM349 502.083 352.333 502.083 352.333 502.917 349 502.917ZM354.833 502.083 358.167 502.083 358.167 502.917 354.833 502.917ZM360.667 502.083 364 502.083 364 502.917 360.667 502.917ZM366.5 502.083 369.833 502.083 369.833 502.917 366.5 502.917ZM372.333 502.083 375.667 502.083 375.667 502.917 372.333 502.917ZM378.167 502.083 381.5 502.083 381.5 502.917 378.167 502.917ZM384 502.083 387.333 502.083 387.333 502.917 384 502.917ZM389.833 502.083 393.167 502.083 393.167 502.917 389.833 502.917ZM395.667 502.083 399 502.083 399 502.917 395.667 502.917ZM401.5 502.083 404.833 502.083 404.833 502.917 401.5 502.917ZM407.333 502.083 410.667 502.083 410.667 502.917 407.333 502.917ZM413.167 502.083 416.5 502.083 416.5 502.917 413.167 502.917ZM419 502.083 422.333 502.083 422.333 502.917 419 502.917ZM424.833 502.083 428.167 502.083 428.167 502.917 424.833 502.917ZM430.667 502.083 434 502.083 434 502.917 430.667 502.917ZM436.5 502.083 439.833 502.083 439.833 502.917 436.5 502.917ZM442.333 502.083 445.667 502.083 445.667 502.917 442.333 502.917ZM448.167 502.083 451.5 502.083 451.5 502.917 448.167 502.917ZM454 502.083 457.333 502.083 457.333 502.917 454 502.917ZM459.833 502.083 463.167 502.083 463.167 502.917 459.833 502.917ZM465.667 502.083 469 502.083 469 502.917 465.667 502.917ZM471.5 502.083 474.833 502.083 474.833 502.917 471.5 502.917ZM477.333 502.083 480.667 502.083 480.667 502.917 477.333 502.917ZM483.167 502.083 486.5 502.083 486.5 502.917 483.167 502.917ZM489 502.083 492.333 502.083 492.333 502.917 489 502.917ZM494.833 502.083 498.167 502.083 498.167 502.917 494.833 502.917ZM500.667 502.083 504 502.083 504 502.917 500.667 502.917ZM506.5 502.083 509.833 502.083 509.833 502.917 506.5 502.917ZM512.333 502.083 515.667 502.083 515.667 502.917 512.333 502.917ZM518.167 502.083 521.5 502.083 521.5 502.917 518.167 502.917ZM524 502.083 527.333 502.083 527.333 502.917 524 502.917ZM529.833 502.083 533.167 502.083 533.167 502.917 529.833 502.917ZM535.667 502.083 539 502.083 539 502.917 535.667 502.917ZM541.5 502.083 544.833 502.083 544.833 502.917 541.5 502.917ZM547.333 502.083 550.667 502.083 550.667 502.917 547.333 502.917ZM553.167 502.083 556.5 502.083 556.5 502.917 553.167 502.917ZM559 502.083 562.333 502.083 562.333 502.917 559 502.917ZM564.833 502.083 568.167 502.083 568.167 502.917 564.833 502.917ZM570.667 502.083 574 502.083 574 502.917 570.667 502.917ZM576.5 502.083 579.833 502.083 579.833 502.917 576.5 502.917ZM582.333 502.083 585.667 502.083 585.667 502.917 582.333 502.917ZM588.167 502.083 591.5 502.083 591.5 502.917 588.167 502.917ZM594 502.083 597.333 502.083 597.333 502.917 594 502.917ZM599.833 502.083 603.167 502.083 603.167 502.917 599.833 502.917ZM605.667 502.083 609 502.083 609 502.917 605.667 502.917ZM611.5 502.083 614.833 502.083 614.833 502.917 611.5 502.917ZM617.333 502.083 620.667 502.083 620.667 502.917 617.333 502.917ZM623.167 502.083 626.5 502.083 626.5 502.917 623.167 502.917ZM629 502.083 632.333 502.083 632.333 502.917 629 502.917ZM634.833 502.083 638.167 502.083 638.167 502.917 634.833 502.917ZM640.667 502.083 644 502.083 644 502.917 640.667 502.917ZM646.5 502.083 649.833 502.083 649.833 502.917 646.5 502.917ZM652.333 502.083 655.667 502.083 655.667 502.917 652.333 502.917ZM658.167 502.083 661.5 502.083 661.5 502.917 658.167 502.917ZM664 502.083 667.333 502.083 667.333 502.917 664 502.917ZM669.833 502.083 673.167 502.083 673.167 502.917 669.833 502.917ZM675.667 502.083 679 502.083 679 502.917 675.667 502.917ZM681.5 502.083 684.833 502.083 684.833 502.917 681.5 502.917ZM687.333 502.083 690.667 502.083 690.667 502.917 687.333 502.917ZM693.167 502.083 696.5 502.083 696.5 502.917 693.167 502.917ZM699 502.083 702.333 502.083 702.333 502.917 699 502.917ZM704.833 502.083 708.167 502.083 708.167 502.917 704.833 502.917ZM710.667 502.083 714 502.083 714 502.917 710.667 502.917ZM716.5 502.083 719.833 502.083 719.833 502.917 716.5 502.917ZM722.333 502.083 725.667 502.083 725.667 502.917 722.333 502.917ZM728.167 502.083 731.5 502.083 731.5 502.917 728.167 502.917ZM734 502.083 737.333 502.083 737.333 502.917 734 502.917ZM739.833 502.083 743.167 502.083 743.167 502.917 739.833 502.917ZM745.667 502.083 749 502.083 749 502.917 745.667 502.917ZM751.5 502.083 754.833 502.083 754.833 502.917 751.5 502.917ZM757.333 502.083 760.667 502.083 760.667 502.917 757.333 502.917ZM763.167 502.083 766.5 502.083 766.5 502.917 763.167 502.917ZM769 502.083 772.333 502.083 772.333 502.917 769 502.917ZM774.833 502.083 778.167 502.083 778.167 502.917 774.833 502.917ZM780.667 502.083 784 502.083 784 502.917 780.667 502.917ZM786.5 502.083 789.833 502.083 789.833 502.917 786.5 502.917ZM792.333 502.083 795.667 502.083 795.667 502.917 792.333 502.917ZM798.167 502.083 801.5 502.083 801.5 502.917 798.167 502.917ZM804 502.083 807.333 502.083 807.333 502.917 804 502.917ZM809.833 502.083 813.167 502.083 813.167 502.917 809.833 502.917ZM815.667 502.083 819 502.083 819 502.917 815.667 502.917ZM821.5 502.083 824.833 502.083 824.833 502.917 821.5 502.917ZM827.333 502.083 830.667 502.083 830.667 502.917 827.333 502.917ZM833.167 502.083 836.5 502.083 836.5 502.917 833.167 502.917ZM839 502.083 842.333 502.083 842.333 502.917 839 502.917ZM844.833 502.083 848.167 502.083 848.167 502.917 844.833 502.917ZM850.667 502.083 854 502.083 854 502.917 850.667 502.917ZM856.5 502.083 859.833 502.083 859.833 502.917 856.5 502.917ZM862.333 502.083 865.667 502.083 865.667 502.917 862.333 502.917ZM868.167 502.083 871.5 502.083 871.5 502.917 868.167 502.917ZM874 502.083 877.333 502.083 877.333 502.917 874 502.917ZM879.833 502.083 883.167 502.083 883.167 502.917 879.833 502.917ZM885.667 502.083 889 502.083 889 502.917 885.667 502.917ZM891.5 502.083 894.833 502.083 894.833 502.917 891.5 502.917ZM897.333 502.083 900.667 502.083 900.667 502.917 897.333 502.917ZM903.167 502.083 906.5 502.083 906.5 502.917 903.167 502.917ZM909 502.083 912.333 502.083 912.333 502.917 909 502.917ZM914.833 502.083 918.167 502.083 918.167 502.917 914.833 502.917ZM920.667 502.083 924 502.083 924 502.917 920.667 502.917ZM926.5 502.083 929.833 502.083 929.833 502.917 926.5 502.917ZM932.333 502.083 935.667 502.083 935.667 502.917 932.333 502.917ZM938.167 502.083 941.5 502.083 941.5 502.917 938.167 502.917ZM944 502.083 947.333 502.083 947.333 502.917 944 502.917ZM949.833 502.083 953.167 502.083 953.167 502.917 949.833 502.917ZM955.667 502.083 959 502.083 959 502.917 955.667 502.917ZM959.996 504.421 959.996 507.754 959.163 507.754 959.163 504.421ZM959.996 510.254 959.996 513.587 959.163 513.587 959.163 510.254ZM959.996 516.087 959.996 519.421 959.163 519.421 959.163 516.087ZM959.996 521.921 959.996 525.254 959.163 525.254 959.163 521.921ZM959.996 527.754 959.996 531.087 959.163 531.087 959.163 527.754ZM959.996 533.587 959.996 536.921 959.163 536.921 959.163 533.587ZM959.996 539.421 959.996 542.754 959.163 542.754 959.163 539.421ZM959.996 545.254 959.996 548.587 959.163 548.587 959.163 545.254ZM959.996 551.087 959.996 554.421 959.163 554.421 959.163 551.087ZM959.996 556.921 959.996 560.254 959.163 560.254 959.163 556.921ZM959.996 562.754 959.996 566.087 959.163 566.087 959.163 562.754ZM959.996 568.587 959.996 570.173 959.163 570.173 959.163 568.587ZM964.579 568.506 959.579 578.506 954.579 568.506Z" fill="#333F50"/><path d="M204.917 547.5 204.917 550.833 204.083 550.833 204.083 547.5ZM204.917 553.333 204.917 556.667 204.083 556.667 204.083 553.333ZM204.917 559.167 204.917 562.5 204.083 562.5 204.083 559.167ZM204.917 565 204.917 568.333 204.083 568.333 204.083 565ZM204.917 570.833 204.917 574.167 204.083 574.167 204.083 570.833ZM204.917 576.667 204.917 580 204.083 580 204.083 576.667ZM204.917 582.5 204.917 585.833 204.083 585.833 204.083 582.5ZM204.917 588.333 204.917 591.667 204.083 591.667 204.083 588.333ZM204.917 594.167 204.917 597.5 204.083 597.5 204.083 594.167ZM204.917 600 204.917 603.333 204.083 603.333 204.083 600ZM204.917 605.833 204.917 609.167 204.083 609.167 204.083 605.833ZM204.917 611.667 204.917 615 204.083 615 204.083 611.667ZM204.917 617.5 204.917 620.833 204.083 620.833 204.083 617.5ZM204.917 623.333 204.917 626.667 204.083 626.667 204.083 623.333ZM204.917 629.167 204.917 632.5 204.083 632.5 204.083 629.167ZM204.917 635 204.917 638.333 204.083 638.333 204.083 635ZM204.917 640.833 204.917 644.167 204.083 644.167 204.083 640.833ZM204.917 646.667 204.917 650 204.083 650 204.083 646.667ZM204.917 652.5 204.917 655.833 204.083 655.833 204.083 652.5ZM204.917 658.333 204.917 661.667 204.083 661.667 204.083 658.333ZM204.917 664.167 204.917 667.5 204.083 667.5 204.083 664.167ZM204.917 670 204.917 672.763 204.083 672.763 204.083 670ZM209.5 671.096 204.5 681.096 199.5 671.096Z" fill="#333F50"/></g></svg>