<svg width="1306" height="402" xmlns="http://www.w3.org/2000/svg" xmlns:xlink="http://www.w3.org/1999/xlink" xml:space="preserve" overflow="hidden"><g transform="translate(-132 -466)"><rect x="1210" y="640" width="228" height="109" fill="#8FAADC"/><rect x="132" y="606" width="227" height="177" fill="#8FAADC"/><rect x="143" y="714" width="207" height="59" fill="#2F5597"/><text fill="#FFFFFF" font-family="Calibri,Calibri_MSFontService,Arial" font-weight="400" font-size="30" transform="translate(178.99 753)">Leaky ReLu</text><rect x="143" y="618" width="207" height="86" fill="#2F5597"/><text fill="#FFFFFF" font-family="Calibri,Calibri_MSFontService,Arial" font-weight="400" font-size="27" transform="translate(205.924 658)">Conv2d</text><text fill="#FFFFFF" font-family="Calibri,Calibri_MSFontService,Arial" font-weight="400" font-size="20" transform="translate(171.957 684)">(64, k=4, s=2, p=1)</text><rect x="405" y="570" width="228" height="248" fill="#8FAADC"/><rect x="416" y="678" width="208" height="59" fill="#2F5597"/><text fill="#FFFFFF" font-family="Calibri,Calibri_MSFontService,Arial" font-weight="400" font-size="30" transform="translate(447.24 718)">Batch Norm</text><rect x="416" y="582" width="208" height="86" fill="#2F5597"/><text fill="#FFFFFF" font-family="Calibri,Calibri_MSFontService,Arial" font-weight="400" font-size="27" transform="translate(479.015 622)">Conv2d</text><text fill="#FFFFFF" font-family="Calibri,Calibri_MSFontService,Arial" font-weight="400" font-size="20" transform="translate(439.94 648)">(128, k=4, s=2, p=1)</text><rect x="416" y="747" width="208" height="59" fill="#2F5597"/><text fill="#FFFFFF" font-family="Calibri,Calibri_MSFontService,Arial" font-weight="400" font-size="30" transform="translate(452.078 787)">Leaky ReLu</text><rect x="677" y="570" width="228" height="248" fill="#8FAADC"/><rect x="688" y="678" width="208" height="59" fill="#2F5597"/><text fill="#FFFFFF" font-family="Calibri,Calibri_MSFontService,Arial" font-weight="400" font-size="30" transform="translate(719.24 718)">Batch Norm</text><rect x="688" y="582" width="208" height="86" fill="#2F5597"/><text fill="#FFFFFF" font-family="Calibri,Calibri_MSFontService,Arial" font-weight="400" font-size="27" transform="translate(751.015 622)">Conv2d</text><text fill="#FFFFFF" font-family="Calibri,Calibri_MSFontService,Arial" font-weight="400" font-size="20" transform="translate(711.94 648)">(256, k=4, s=2, p=1)</text><rect x="688" y="747" width="208" height="59" fill="#2F5597"/><text fill="#FFFFFF" font-family="Calibri,Calibri_MSFontService,Arial" font-weight="400" font-size="30" transform="translate(724.078 787)">Leaky ReLu</text><rect x="949" y="570" width="228" height="248" fill="#8FAADC"/><rect x="960" y="678" width="208" height="59" fill="#2F5597"/><text fill="#FFFFFF" font-family="Calibri,Calibri_MSFontService,Arial" font-weight="400" font-size="30" transform="translate(991.24 718)">Batch Norm</text><rect x="960" y="582" width="208" height="86" fill="#2F5597"/><text fill="#FFFFFF" font-family="Calibri,Calibri_MSFontService,Arial" font-weight="400" font-size="27" transform="translate(1023.02 622)">Conv2d</text><text fill="#FFFFFF" font-family="Calibri,Calibri_MSFontService,Arial" font-weight="400" font-size="20" transform="translate(983.94 648)">(512, k=4, s=2, p=1)</text><rect x="960" y="747" width="208" height="59" fill="#2F5597"/><text fill="#FFFFFF" font-family="Calibri,Calibri_MSFontService,Arial" font-weight="400" font-size="30" transform="translate(996.078 787)">Leaky ReLu</text><rect x="1222" y="651" width="205" height="86" fill="#2F5597"/><text fill="#FFFFFF" font-family="Calibri,Calibri_MSFontService,Arial" font-weight="400" font-size="27" transform="translate(1283.54 691)">Conv2d</text><text fill="#FFFFFF" font-family="Calibri,Calibri_MSFontService,Arial" font-weight="400" font-size="20" transform="translate(1254.68 717)">(1, k=4, s=2, p=1)</text><path d="M359.5 694.083 396.643 694.083 396.643 694.917 359.5 694.917ZM394.977 689.5 404.977 694.5 394.977 699.5Z" fill="#262626"/><path d="M633.5 694.083 669.556 694.083 669.556 694.917 633.5 694.917ZM667.889 689.5 677.889 694.5 667.889 699.5Z" fill="#262626"/><path d="M905.5 694.083 941.556 694.083 941.556 694.917 905.5 694.917ZM939.889 689.5 949.889 694.5 939.889 699.5Z" fill="#262626"/><path d="M1177.5 694.083 1203.08 694.083 1203.08 694.917 1177.5 694.917ZM1201.42 689.5 1211.42 694.5 1201.42 699.5Z" fill="#262626"/><rect x="143" y="466" width="205" height="86" fill="#4472C4"/><text fill="#FFFFFF" font-family="Calibri,Calibri_MSFontService,Arial" font-weight="400" font-size="27" transform="translate(192.133 502)">3</text><text fill="#FFFFFF" font-family="Calibri,Calibri_MSFontService,Arial" font-weight="400" font-size="27" transform="translate(205.674 502)">-</text><text fill="#FFFFFF" font-family="Calibri,Calibri_MSFontService,Arial" font-weight="400" font-size="27" transform="translate(213.799 502)">channel </text><text fill="#FFFFFF" font-family="Calibri,Calibri_MSFontService,Arial" font-weight="400" font-size="27" transform="translate(207.558 534)">images</text><path d="M246.917 552.499 246.98 598.17 246.146 598.172 246.083 552.501ZM251.561 596.497 246.575 606.504 241.561 596.511Z" fill="#262626"/><rect x="1212" y="783" width="226" height="85" fill="#ED7D31"/><text fill="#FFFFFF" font-family="Calibri,Calibri_MSFontService,Arial" font-weight="400" font-size="27" transform="translate(1232.74 835)">30</text><text fill="#FFFFFF" font-family="Calibri,Calibri_MSFontService,Arial" font-weight="400" font-size="27" transform="translate(1259.83 835)">×</text><text fill="#FFFFFF" font-family="Calibri,Calibri_MSFontService,Arial" font-weight="400" font-size="27" transform="translate(1273.16 835)">30 </text><text fill="#FFFFFF" font-family="Calibri,Calibri_MSFontService,Arial" font-weight="400" font-size="27" transform="translate(1306.29 835)">prediction</text><path d="M1324.92 749.493 1325.37 775.14 1324.54 775.155 1324.08 749.507ZM1329.92 773.393 1325.1 783.48 1319.93 773.57Z" fill="#262626"/></g></svg>