<svg width="1209" height="468" xmlns="http://www.w3.org/2000/svg" xmlns:xlink="http://www.w3.org/1999/xlink" xml:space="preserve" overflow="hidden"><g transform="translate(-103 -368)"><rect x="109" y="371" width="508" height="464" fill="#8FAADC"/><text font-family="Calibri,Calibri_MSFontService,Arial" font-weight="400" font-size="30" transform="translate(121.473 405)">SPADE Block</text><rect x="127" y="421" width="196" height="122" fill="#2F5597"/><text fill="#FFFFFF" font-family="Calibri,Calibri_MSFontService,Arial" font-weight="400" font-size="30" transform="translate(187.221 480)">Resize  </text><text fill="#FFFFFF" font-family="Calibri,Calibri_MSFontService,Arial" font-weight="400" font-size="20" transform="translate(148.804 507)">segmentation map</text><rect x="368" y="421" width="197" height="58" fill="#2F5597"/><text fill="#FFFFFF" font-family="Calibri,Calibri_MSFontService,Arial" font-weight="400" font-size="30" transform="translate(392.851 460)">Conv2D 3</text><text fill="#FFFFFF" font-family="Calibri,Calibri_MSFontService,Arial" font-weight="400" font-size="30" transform="translate(509.435 460)">×</text><text fill="#FFFFFF" font-family="Calibri,Calibri_MSFontService,Arial" font-weight="400" font-size="30" transform="translate(524.435 460)">3</text><rect x="368" y="486" width="197" height="57" fill="#2F5597"/><text fill="#FFFFFF" font-family="Calibri,Calibri_MSFontService,Arial" font-weight="400" font-size="30" transform="translate(435.268 525)">ReLU</text><rect x="272" y="614" width="151" height="57" fill="#2F5597"/><text fill="#FFFFFF" font-family="Calibri,Calibri_MSFontService,Arial" font-weight="400" font-size="30" transform="translate(300.289 653)">Conv2D</text><rect x="141" y="693" width="131" height="122" fill="#2F5597"/><text fill="#FFFFFF" font-family="Calibri,Calibri_MSFontService,Arial" font-weight="400" font-size="30" transform="translate(172.314 746)">Batch </text><text fill="#FFFFFF" font-family="Calibri,Calibri_MSFontService,Arial" font-weight="400" font-size="30" transform="translate(171.781 782)">Norm</text><rect x="446" y="614" width="151" height="57" fill="#2F5597"/><text fill="#FFFFFF" font-family="Calibri,Calibri_MSFontService,Arial" font-weight="400" font-size="30" transform="translate(474.158 653)">Conv2D</text><path d="M323.5 450.083 359.684 450.083 359.684 450.917 323.5 450.917ZM358.017 445.5 368.017 450.5 358.017 455.5Z" fill="#FFFFFF"/><path d="M467.625 543.5 467.625 579.298 348.5 579.298 348.917 578.881 348.917 605.928 348.083 605.928 348.083 578.464 467.209 578.464 466.792 578.881 466.792 543.5ZM353.5 604.262 348.5 614.262 343.5 604.262Z" fill="#FFFFFF"/><path d="M0-0.416667 35.7975-0.416667 35.7975 55.1602 35.3808 54.7436 62.4283 54.7436 62.4283 55.5769 34.9642 55.5769 34.9642 0 35.3808 0.416667 0 0.416667ZM60.7617 50.1602 70.7617 55.1602 60.7617 60.1602Z" fill="#FFFFFF" transform="matrix(1.83697e-16 1 1 -1.83697e-16 466.5 543.5)"/><path d="M272.5 754.083 608.889 754.083 608.889 754.917 272.5 754.917ZM607.222 749.5 617.222 754.5 607.222 759.5Z" fill="#FFFFFF"/><path d="M348.917 671.5 348.917 726.949 348.083 726.949 348.083 671.5ZM353.5 725.282 348.5 735.282 343.5 725.282Z" fill="#FFFFFF"/><path d="M521.917 671.5 521.917 728.573 521.083 728.573 521.083 671.5ZM526.5 726.907 521.5 736.907 516.5 726.907Z" fill="#FFFFFF"/><path d="M333 754C333 745.716 339.716 739 348 739 356.284 739 363 745.716 363 754 363 762.284 356.284 769 348 769 339.716 769 333 762.284 333 754Z" stroke="#FFFFFF" stroke-width="1.66667" stroke-miterlimit="8" fill="#4472C4" fill-rule="evenodd"/><text fill="#FFFFFF" font-family="Calibri,Calibri_MSFontService,Arial" font-weight="400" font-size="30" transform="translate(340.347 763)">×</text><path d="M507 754C507 745.716 513.492 739 521.5 739 529.508 739 536 745.716 536 754 536 762.284 529.508 769 521.5 769 513.492 769 507 762.284 507 754Z" stroke="#FFFFFF" stroke-width="1.66667" stroke-miterlimit="8" fill="#4472C4" fill-rule="evenodd"/><text fill="#FFFFFF" font-family="Calibri,Calibri_MSFontService,Arial" font-weight="400" font-size="30" transform="translate(513.908 763)">+</text><path d="M109.5 754.083 132.783 754.083 132.783 754.917 109.5 754.917ZM131.117 749.5 141.117 754.5 131.117 759.5Z" fill="#FFFFFF"/><path d="M565.5 450.083 588.717 450.083 588.717 515.706 575.5 515.706 575.5 514.873 588.3 514.873 587.883 515.29 587.883 450.5 588.3 450.917 565.5 450.917ZM577.167 520.29 567.167 515.29 577.167 510.29Z" fill="#FFFFFF"/><rect x="671" y="371" width="630" height="465" fill="#9DC3E6"/><text font-family="Calibri,Calibri_MSFontService,Arial" font-weight="400" font-size="30" transform="translate(683.291 405)">SRB </text><text font-family="Calibri,Calibri_MSFontService,Arial" font-weight="400" font-size="23" transform="translate(736.416 405)">filter_in</text><text font-family="Calibri,Calibri_MSFontService,Arial" font-weight="400" font-size="23" transform="translate(816.374 405)">-</text><text font-family="Calibri,Calibri_MSFontService,Arial" font-weight="400" font-size="23" transform="translate(823.458 405)">&gt; </text><text font-family="Calibri,Calibri_MSFontService,Arial" font-weight="400" font-size="23" transform="translate(840.333 405)">filter_out</text><text font-family="Calibri,Calibri_MSFontService,Arial" font-weight="400" font-size="30" transform="translate(935.083 405)">(SPADE </text><text font-family="Calibri,Calibri_MSFontService,Arial" font-weight="400" font-size="30" transform="translate(1028.5 405)">ResnetBlock</text><text font-family="Calibri,Calibri_MSFontService,Arial" font-weight="400" font-size="30" transform="translate(1183.65 405)">)</text><rect x="712" y="422" width="57" height="178" fill="#2F5597"/><text fill="#FFFFFF" font-family="Calibri,Calibri_MSFontService,Arial" font-weight="400" font-size="30" transform="matrix(6.12323e-17 1 -1 6.12323e-17 730.322 472)">S</text><text fill="#FFFFFF" font-family="Calibri,Calibri_MSFontService,Arial" font-weight="400" font-size="30" transform="matrix(6.12323e-17 1 -1 6.12323e-17 730.322 486)">PADE</text><rect x="774" y="422" width="57" height="178" fill="#5597D3"/><text fill="#FFFFFF" font-family="Calibri,Calibri_MSFontService,Arial" font-weight="400" font-size="30" transform="matrix(6.12323e-17 1 -1 6.12323e-17 792.49 442)">Leaky ReLU</text><rect x="836" y="422" width="57" height="178" fill="#5597D3"/><text fill="#FFFFFF" font-family="Calibri,Calibri_MSFontService,Arial" font-weight="400" font-size="30" transform="matrix(6.12323e-17 1 -1 6.12323e-17 854.658 454)">Conv2D </text><text fill="#FFFFFF" font-family="Calibri,Calibri_MSFontService,Arial" font-weight="400" font-size="23" transform="matrix(6.12323e-17 1 -1 6.12323e-17 854.658 556)">*</text><rect x="898" y="422" width="57" height="178" fill="#5597D3"/><text fill="#FFFFFF" font-family="Calibri,Calibri_MSFontService,Arial" font-weight="400" font-size="27" transform="matrix(6.12323e-17 1 -1 6.12323e-17 917.158 435)">Spectral norm</text><rect x="993" y="422" width="57" height="178" fill="#2F5597"/><text fill="#FFFFFF" font-family="Calibri,Calibri_MSFontService,Arial" font-weight="400" font-size="30" transform="matrix(6.12323e-17 1 -1 6.12323e-17 1011.22 472)">S</text><text fill="#FFFFFF" font-family="Calibri,Calibri_MSFontService,Arial" font-weight="400" font-size="30" transform="matrix(6.12323e-17 1 -1 6.12323e-17 1011.22 486)">PADE</text><rect x="1055" y="422" width="57" height="178" fill="#5597D3"/><text fill="#FFFFFF" font-family="Calibri,Calibri_MSFontService,Arial" font-weight="400" font-size="30" transform="matrix(6.12323e-17 1 -1 6.12323e-17 1073.39 442)">Leaky ReLU</text><rect x="1117" y="422" width="57" height="178" fill="#5597D3"/><text fill="#FFFFFF" font-family="Calibri,Calibri_MSFontService,Arial" font-weight="400" font-size="30" transform="matrix(6.12323e-17 1 -1 6.12323e-17 1135.56 449)">Conv2D </text><text fill="#FFFFFF" font-family="Calibri,Calibri_MSFontService,Arial" font-weight="400" font-size="23" transform="matrix(6.12323e-17 1 -1 6.12323e-17 1135.56 550)">**</text><rect x="1178" y="422" width="58" height="178" fill="#5597D3"/><text fill="#FFFFFF" font-family="Calibri,Calibri_MSFontService,Arial" font-weight="400" font-size="27" transform="matrix(6.12323e-17 1 -1 6.12323e-17 1198.06 435)">Spectral norm</text><path d="M672.5 510.083 703.643 510.083 703.643 510.917 672.5 510.917ZM701.976 505.5 711.976 510.5 701.976 515.5Z" fill="#FFFFFF"/><path d="M1.44457e-06-0.416667 29.5193-0.416564 29.5193 0.416769-1.44457e-06 0.416667ZM27.8526-4.9999 37.8526 0.000131234 27.8526 5.0001Z" fill="#FFFFFF" transform="matrix(1 0 0 -1 955.5 511.5)"/><path d="M0.00378306-0.416649 56.6536 0.0977156 56.646 0.931015-0.00378306 0.416649ZM55.0286-4.50056 64.9828 0.590026 54.9378 5.49903Z" fill="#FFFFFF" transform="matrix(1 0 0 -1 1236.5 511.09)"/><path d="M1178.08 621.263 1178.08 620.715 1263.03 620.715 1262.61 621.132 1262.61 533.833 1263.44 533.833 1263.44 621.548 1178.5 621.548 1178.92 621.132 1178.92 621.263ZM1258.03 535.5 1263.03 525.5 1268.03 535.5Z" fill="#FFFFFF"/><path d="M687.5 510.5 689.967 510.5 689.967 621.089 1178.94 621.089" stroke="#FFFFFF" stroke-width="0.833333" stroke-miterlimit="8" fill="none" fill-rule="evenodd"/><path d="M1248 510C1248 501.716 1254.72 495 1263 495 1271.28 495 1278 501.716 1278 510 1278 518.284 1271.28 525 1263 525 1254.72 525 1248 518.284 1248 510Z" stroke="#FFFFFF" stroke-width="1.66667" stroke-miterlimit="8" fill="#5597D3" fill-rule="evenodd"/><text fill="#FFFFFF" font-family="Calibri,Calibri_MSFontService,Arial" font-weight="400" font-size="30" transform="translate(1255.48 519)">+</text><rect x="883" y="643" width="57" height="178" fill="#2F5597"/><text fill="#FFFFFF" font-family="Calibri,Calibri_MSFontService,Arial" font-weight="400" font-size="30" transform="matrix(6.12323e-17 1 -1 6.12323e-17 901.522 694)">S</text><text fill="#FFFFFF" font-family="Calibri,Calibri_MSFontService,Arial" font-weight="400" font-size="30" transform="matrix(6.12323e-17 1 -1 6.12323e-17 901.522 707)">PADE</text><rect x="945" y="643" width="57" height="178" fill="#5597D3"/><text fill="#FFFFFF" font-family="Calibri,Calibri_MSFontService,Arial" font-weight="400" font-size="30" transform="matrix(6.12323e-17 1 -1 6.12323e-17 963.69 663)">Leaky ReLU</text><rect x="1007" y="643" width="57" height="178" fill="#5597D3"/><text fill="#FFFFFF" font-family="Calibri,Calibri_MSFontService,Arial" font-weight="400" font-size="30" transform="matrix(6.12323e-17 1 -1 6.12323e-17 1025.86 659)">Conv2D 3</text><text fill="#FFFFFF" font-family="Calibri,Calibri_MSFontService,Arial" font-weight="400" font-size="30" transform="matrix(6.12323e-17 1 -1 6.12323e-17 1025.86 775)">×</text><text fill="#FFFFFF" font-family="Calibri,Calibri_MSFontService,Arial" font-weight="400" font-size="30" transform="matrix(6.12323e-17 1 -1 6.12323e-17 1025.86 790)">3</text><path d="M0-0.416667 6.66667-0.416667 6.66667 0.416667 0 0.416667ZM9.16667-0.416667 10-0.416667 10 0.416667 9.16667 0.416667ZM12.5-0.416667 19.1667-0.416667 19.1667 0.416667 12.5 0.416667ZM21.6667-0.416667 22.5-0.416667 22.5 0.416667 21.6667 0.416667ZM25-0.416667 31.6667-0.416667 31.6667 0.416667 25 0.416667ZM34.1667-0.416667 35-0.416667 35 0.416667 34.1667 0.416667ZM37.5-0.416667 44.1667-0.416667 44.1667 0.416667 37.5 0.416667ZM46.6667-0.416667 47.5-0.416667 47.5 0.416667 46.6667 0.416667ZM50-0.416667 56.6667-0.416667 56.6667 0.416667 50 0.416667ZM59.1667-0.416667 60-0.416667 60 0.416667 59.1667 0.416667ZM62.5-0.416667 69.1667-0.416667 69.1667 0.416667 62.5 0.416667ZM71.6667-0.416667 72.5-0.416667 72.5 0.416667 71.6667 0.416667ZM75-0.416667 81.6667-0.416667 81.6667 0.416667 75 0.416667ZM84.1667-0.416667 85-0.416667 85 0.416667 84.1667 0.416667ZM87.5-0.416667 94.1667-0.416667 94.1667 0.416667 87.5 0.416667ZM96.6667-0.416667 97.5-0.416667 97.5 0.416667 96.6667 0.416667ZM100-0.416667 106.667-0.416667 106.667 0.416667 100 0.416667ZM109.167-0.416667 110-0.416667 110 0.416667 109.167 0.416667ZM112.5-0.416667 119.167-0.416667 119.167 0.416667 112.5 0.416667ZM121.667-0.416667 122.5-0.416667 122.5 0.416667 121.667 0.416667ZM125-0.416667 131.667-0.416667 131.667 0.416667 125 0.416667ZM134.167-0.416667 135-0.416667 135 0.416667 134.167 0.416667ZM137.5-0.416667 144.167-0.416667 144.167 0.416667 137.5 0.416667ZM146.667-0.416667 147.5-0.416667 147.5 0.416667 146.667 0.416667ZM150-0.416667 156.667-0.416667 156.667 0.416667 150 0.416667ZM159.167-0.416667 160-0.416667 160 0.416667 159.167 0.416667ZM162.5-0.416667 169.167-0.416667 169.167 0.416667 162.5 0.416667ZM171.667-0.416667 172.5-0.416667 172.5 0.416667 171.667 0.416667ZM175-0.416667 181.667-0.416667 181.667 0.416667 175 0.416667ZM184.167-0.416667 185-0.416667 185 0.416667 184.167 0.416667ZM187.5-0.416667 194.167-0.416667 194.167 0.416667 187.5 0.416667ZM196.667-0.416667 197.5-0.416667 197.5 0.416667 196.667 0.416667ZM198.932 1.48438 198.932 8.15105 198.099 8.15105 198.099 1.48438ZM198.932 10.651 198.932 11.4844 198.099 11.4844 198.099 10.651ZM198.932 13.9844 198.932 20.6511 198.099 20.6511 198.099 13.9844ZM198.932 23.1511 198.932 23.9844 198.099 23.9844 198.099 23.1511ZM198.932 26.4844 198.932 33.1511 198.099 33.1511 198.099 26.4844ZM198.932 35.6511 198.932 36.4844 198.099 36.4844 198.099 35.6511ZM198.932 38.9844 198.932 45.6511 198.099 45.6511 198.099 38.9844ZM198.932 48.1511 198.932 48.9844 198.099 48.9844 198.099 48.1511ZM198.932 51.4844 198.932 58.1511 198.099 58.1511 198.099 51.4844ZM198.932 60.6511 198.932 61.4844 198.099 61.4844 198.099 60.6511ZM198.932 63.9844 198.932 70.651 198.099 70.651 198.099 63.9844ZM198.932 73.151 198.932 73.9844 198.099 73.9844 198.099 73.151ZM198.932 76.4844 198.932 83.151 198.099 83.151 198.099 76.4844ZM198.932 85.651 198.932 86.4844 198.099 86.4844 198.099 85.651ZM198.932 88.9844 198.932 95.651 198.099 95.651 198.099 88.9844ZM198.932 98.151 198.932 98.9844 198.099 98.9844 198.099 98.151ZM198.932 101.484 198.932 108.151 198.099 108.151 198.099 101.484ZM198.932 110.651 198.932 111.484 198.099 111.484 198.099 110.651ZM198.932 113.984 198.932 120.651 198.099 120.651 198.099 113.984ZM198.932 123.151 198.932 123.984 198.099 123.984 198.099 123.151ZM198.932 126.484 198.932 133.151 198.099 133.151 198.099 126.484ZM198.932 135.651 198.932 136.484 198.099 136.484 198.099 135.651ZM198.932 138.984 198.932 145.651 198.099 145.651 198.099 138.984ZM198.932 148.151 198.932 148.984 198.099 148.984 198.099 148.151ZM198.932 151.484 198.932 158.151 198.099 158.151 198.099 151.484ZM198.932 160.651 198.932 161.484 198.099 161.484 198.099 160.651ZM198.932 163.984 198.932 170.651 198.099 170.651 198.099 163.984ZM198.932 173.151 198.932 173.984 198.099 173.984 198.099 173.151ZM198.932 176.484 198.932 183.151 198.099 183.151 198.099 176.484ZM198.932 185.651 198.932 186.484 198.099 186.484 198.099 185.651ZM198.932 188.984 198.932 195.651 198.099 195.651 198.099 188.984ZM198.932 198.151 198.932 198.797 198.099 198.797 198.099 198.151ZM203.516 197.13 198.516 207.13 193.516 197.13Z" fill="#FFFFFF" transform="matrix(1 0 0 -1 1064.5 732.63)"/><path d="M0-0.416667 6.66667-0.416667 6.66667 0.416667 0 0.416667ZM9.16667-0.416667 10-0.416667 10 0.416667 9.16667 0.416667ZM12.5-0.416667 19.1667-0.416667 19.1667 0.416667 12.5 0.416667ZM21.6667-0.416667 22.5-0.416667 22.5 0.416667 21.6667 0.416667ZM25-0.416667 31.6667-0.416667 31.6667 0.416667 25 0.416667ZM34.1667-0.416667 35-0.416667 35 0.416667 34.1667 0.416667ZM37.5-0.416667 44.1667-0.416667 44.1667 0.416667 37.5 0.416667ZM46.6667-0.416667 47.5-0.416667 47.5 0.416667 46.6667 0.416667ZM50-0.416667 56.6667-0.416667 56.6667 0.416667 50 0.416667ZM59.1667-0.416667 60-0.416667 60 0.416667 59.1667 0.416667ZM62.5-0.416667 69.1667-0.416667 69.1667 0.416667 62.5 0.416667ZM71.6667-0.416667 72.5-0.416667 72.5 0.416667 71.6667 0.416667ZM75-0.416667 81.6667-0.416667 81.6667 0.416667 75 0.416667ZM84.1667-0.416667 85-0.416667 85 0.416667 84.1667 0.416667ZM87.5-0.416667 94.1667-0.416667 94.1667 0.416667 87.5 0.416667ZM96.6667-0.416667 97.5-0.416667 97.5 0.416667 96.6667 0.416667ZM100-0.416667 106.667-0.416667 106.667 0.416667 100 0.416667ZM109.167-0.416667 110-0.416667 110 0.416667 109.167 0.416667ZM112.5-0.416667 119.167-0.416667 119.167 0.416667 112.5 0.416667ZM121.667-0.416667 122.5-0.416667 122.5 0.416667 121.667 0.416667ZM125-0.416667 131.667-0.416667 131.667 0.416667 125 0.416667ZM134.167-0.416667 135-0.416667 135 0.416667 134.167 0.416667ZM137.5-0.416667 144.167-0.416667 144.167 0.416667 137.5 0.416667ZM146.667-0.416667 147.5-0.416667 147.5 0.416667 146.667 0.416667ZM150-0.416667 156.667-0.416667 156.667 0.416667 150 0.416667ZM159.167-0.416667 160-0.416667 160 0.416667 159.167 0.416667ZM162.5-0.416667 169.167-0.416667 169.167 0.416667 162.5 0.416667ZM171.667-0.416667 172.5-0.416667 172.5 0.416667 171.667 0.416667ZM175-0.416667 181.667-0.416667 181.667 0.416667 175 0.416667ZM184.167-0.416667 185-0.416667 185 0.416667 184.167 0.416667ZM187.5-0.416667 194.167-0.416667 194.167 0.416667 187.5 0.416667ZM196.667-0.416667 197.5-0.416667 197.5 0.416667 196.667 0.416667ZM200-0.416667 206.667-0.416667 206.667 0.416667 200 0.416667ZM209.167-0.416667 210-0.416667 210 0.416667 209.167 0.416667ZM212.5-0.416667 219.167-0.416667 219.167 0.416667 212.5 0.416667ZM221.667-0.416667 222.373-0.416667 222.373 0.54357 221.54 0.54357 221.54 0 221.956 0.416667 221.667 0.416667ZM222.373 3.04357 222.373 9.71024 221.54 9.71024 221.54 3.04357ZM222.373 12.2102 222.373 13.0436 221.54 13.0436 221.54 12.2102ZM222.373 15.5436 222.373 22.2102 221.54 22.2102 221.54 15.5436ZM222.373 24.7102 222.373 25.5436 221.54 25.5436 221.54 24.7102ZM222.373 28.0436 222.373 34.7102 221.54 34.7102 221.54 28.0436ZM222.373 37.2102 222.373 38.0436 221.54 38.0436 221.54 37.2102ZM222.373 40.5436 222.373 47.2102 221.54 47.2102 221.54 40.5436ZM222.373 49.7102 222.373 50.5436 221.54 50.5436 221.54 49.7102ZM222.373 53.0436 222.373 59.7102 221.54 59.7102 221.54 53.0436ZM222.373 62.2102 222.373 63.0436 221.54 63.0436 221.54 62.2102ZM222.373 65.5436 222.373 72.2102 221.54 72.2102 221.54 65.5436ZM222.373 74.7102 222.373 75.5436 221.54 75.5436 221.54 74.7102ZM222.373 78.0436 222.373 84.7102 221.54 84.7102 221.54 78.0436ZM222.373 87.2102 222.373 88.0436 221.54 88.0436 221.54 87.2102ZM222.373 90.5436 222.373 97.2102 221.54 97.2102 221.54 90.5436ZM222.373 99.7102 222.373 100.544 221.54 100.544 221.54 99.7102ZM222.373 103.044 222.373 109.71 221.54 109.71 221.54 103.044ZM222.373 112.21 222.373 113.044 221.54 113.044 221.54 112.21ZM222.373 115.544 222.373 122.21 221.54 122.21 221.54 115.544ZM222.373 124.71 222.373 125.544 221.54 125.544 221.54 124.71ZM222.373 128.044 222.373 134.71 221.54 134.71 221.54 128.044ZM222.373 137.21 222.373 138.044 221.54 138.044 221.54 137.21ZM222.373 140.544 222.373 147.21 221.54 147.21 221.54 140.544ZM222.373 149.71 222.373 150.544 221.54 150.544 221.54 149.71ZM222.373 153.044 222.373 159.71 221.54 159.71 221.54 153.044ZM222.373 162.21 222.373 163.044 221.54 163.044 221.54 162.21ZM222.373 165.544 222.373 172.21 221.54 172.21 221.54 165.544ZM222.373 174.71 222.373 175.544 221.54 175.544 221.54 174.71ZM222.373 178.044 222.373 184.71 221.54 184.71 221.54 178.044ZM226.956 183.166 221.956 193.166 216.956 183.166Z" fill="#FFFFFF" transform="matrix(1.83697e-16 1 1 -1.83697e-16 690.5 510.5)"/><text font-family="Calibri,Calibri_MSFontService,Arial" font-weight="400" font-size="15" transform="translate(695.235 752)">If in and out have a different</text><text font-family="Calibri,Calibri_MSFontService,Arial" font-weight="400" font-size="15" transform="translate(695.235 770)">number of filters</text><text font-family="Calibri,Calibri_MSFontService,Arial" font-weight="400" font-size="15" transform="translate(833.771 639)">3</text><text font-family="Calibri,Calibri_MSFontService,Arial" font-weight="400" font-size="15" transform="translate(841.271 639)">×</text><text font-family="Calibri,Calibri_MSFontService,Arial" font-weight="400" font-size="15" transform="translate(848.771 639)">3 * </text><text font-family="Calibri,Calibri_MSFontService,Arial" font-weight="400" font-size="15" transform="translate(705.646 657)">filter_in</text><text font-family="Calibri,Calibri_MSFontService,Arial" font-weight="400" font-size="15" transform="translate(757.312 657)">→ min(</text><text font-family="Calibri,Calibri_MSFontService,Arial" font-weight="400" font-size="15" transform="translate(802.312 657)">f_in</text><text font-family="Calibri,Calibri_MSFontService,Arial" font-weight="400" font-size="15" transform="translate(825.854 657)">, </text><text font-family="Calibri,Calibri_MSFontService,Arial" font-weight="400" font-size="15" transform="translate(832.937 657)">f_out</text><text font-family="Calibri,Calibri_MSFontService,Arial" font-weight="400" font-size="15" transform="translate(865.854 657)">)</text><text font-family="Calibri,Calibri_MSFontService,Arial" font-weight="400" font-size="15" transform="translate(1117.69 640)">** 3</text><text font-family="Calibri,Calibri_MSFontService,Arial" font-weight="400" font-size="15" transform="translate(1143.52 640)">×</text><text font-family="Calibri,Calibri_MSFontService,Arial" font-weight="400" font-size="15" transform="translate(1151.02 640)">3</text><text font-family="Calibri,Calibri_MSFontService,Arial" font-weight="400" font-size="15" transform="translate(1081.02 658)">min(</text><text font-family="Calibri,Calibri_MSFontService,Arial" font-weight="400" font-size="15" transform="translate(1109.14 658)">f_in</text><text font-family="Calibri,Calibri_MSFontService,Arial" font-weight="400" font-size="15" transform="translate(1132.69 658)">, </text><text font-family="Calibri,Calibri_MSFontService,Arial" font-weight="400" font-size="15" transform="translate(1139.77 658)">f_out</text><text font-family="Calibri,Calibri_MSFontService,Arial" font-weight="400" font-size="15" transform="translate(1172.69 658)">) → </text><text font-family="Calibri,Calibri_MSFontService,Arial" font-weight="400" font-size="15" transform="translate(1197.48 658)">filter_out</text></g></svg>